<?xml version="1.0" standalone="no"?>
<!DOCTYPE svg PUBLIC "-//W3C//DTD SVG 20010904//EN"
 "http://www.w3.org/TR/2001/REC-SVG-20010904/DTD/svg10.dtd">
<svg version="1.0" xmlns="http://www.w3.org/2000/svg"
 width="602.000000pt" height="602.000000pt" viewBox="0 0 602.000000 602.000000"
 preserveAspectRatio="xMidYMid meet">
<metadata>
Created by potrace 1.14, written by Peter Selinger 2001-2017
</metadata>
<g transform="translate(0.000000,602.000000) scale(0.100000,-0.100000)"
fill="#000000" stroke="none">
<path d="M1235 5070 c3 -5 8 -10 11 -10 2 0 4 5 4 10 0 6 -5 10 -11 10 -5 0
-7 -4 -4 -10z"/>
<path d="M2153 5068 c21 -7 32 -7 40 1 8 8 0 11 -28 10 -40 -1 -40 -1 -12 -11z"/>
<path d="M2947 4594 c-1 -1 -31 -4 -67 -8 -36 -4 -85 -9 -110 -12 -25 -4 -57
-7 -72 -8 -14 -1 -34 -9 -45 -18 -10 -8 -37 -19 -61 -23 -25 -4 -67 -24 -103
-48 -131 -91 -225 -148 -252 -154 -25 -5 -27 -9 -22 -34 4 -16 4 -37 0 -48 -5
-16 -48 -42 -80 -47 -55 -10 -73 -17 -105 -38 -21 -14 -51 -43 -66 -65 -17
-24 -52 -53 -86 -71 -53 -28 -58 -35 -87 -103 -30 -72 -145 -302 -161 -322
-20 -25 -76 -194 -69 -212 4 -10 10 -41 13 -68 4 -28 9 -59 12 -70 2 -11 6
-47 9 -80 2 -33 6 -72 9 -86 3 -14 7 -67 8 -118 3 -81 1 -94 -16 -106 -18 -13
-18 -20 -7 -85 6 -39 23 -99 37 -133 13 -34 31 -87 39 -118 8 -31 21 -69 29
-84 14 -27 12 -48 -6 -71 -5 -7 -2 -16 7 -24 12 -10 18 -10 30 0 12 10 28 10
78 0 77 -16 132 -43 153 -74 25 -39 116 -103 232 -163 59 -30 111 -59 117 -64
5 -5 18 -9 28 -9 11 0 46 -18 79 -40 33 -22 67 -40 74 -40 22 0 152 -133 168
-171 16 -39 31 -197 22 -226 -9 -28 -112 -99 -166 -115 -30 -9 -62 -31 -100
-68 -71 -71 -192 -161 -253 -190 -53 -25 -126 -91 -143 -130 -6 -14 -16 -44
-21 -67 l-10 -43 892 0 892 0 -15 63 c-8 34 -19 75 -24 90 -15 40 -105 159
-133 176 -13 8 -29 25 -36 38 -15 28 -98 92 -159 123 -25 12 -57 31 -72 41
-14 11 -35 19 -46 19 -24 0 -116 71 -133 102 -7 12 -13 47 -14 78 -2 48 2 61
31 103 19 26 34 54 34 62 0 29 35 51 84 54 40 2 52 7 78 37 36 40 123 94 153
94 22 0 154 49 206 75 19 11 37 32 50 61 20 48 101 160 120 166 6 2 13 23 15
46 6 66 27 97 77 116 25 9 47 25 50 34 49 148 60 275 31 352 -19 53 -27 149
-14 165 12 14 18 48 19 101 1 48 17 72 51 77 23 4 25 8 25 58 1 30 -3 68 -7
84 -4 17 -9 48 -13 69 -3 21 -7 48 -10 60 -3 12 -7 32 -9 46 -3 14 -9 45 -15
70 -6 25 -22 100 -36 168 -28 137 -45 176 -116 273 -27 37 -49 72 -49 78 0 6
-9 11 -19 11 -18 0 -103 42 -243 120 -32 17 -64 40 -71 50 -7 11 -38 38 -68
62 -64 50 -69 56 -69 86 0 13 -8 25 -17 28 -10 3 -38 15 -63 27 -24 12 -60 23
-80 25 -47 3 -80 21 -80 44 0 13 -8 18 -27 19 -143 3 -205 4 -206 3z"/>
<path d="M3490 4570 c0 -5 5 -10 11 -10 5 0 7 5 4 10 -3 6 -8 10 -11 10 -2 0
-4 -4 -4 -10z"/>
<path d="M1553 2410 c1 -20 8 -25 20 -14 7 8 -3 34 -13 34 -5 0 -8 -9 -7 -20z"/>
</g>
</svg>
